<svg xmlns="http://www.w3.org/2000/svg" xmlns:xlink="http://www.w3.org/1999/xlink" viewBox="0 0 32 32"><defs><style>.cls-1{fill:#000;}.cls-2{fill:#fff;}</style><linearGradient id="linear-gradient" x1="16" y1="30.51" x2="16" y2="1.65" gradientUnits="userSpaceOnUse"><stop offset="0" stop-color="#366f45"/><stop offset="1" stop-color="#4d8c5e"/></linearGradient></defs><g id="Layer_2" data-name="Layer 2"><g id="Layer_1-2" data-name="Layer 1"><circle class="cls-1" cx="16" cy="16" r="16"/><path class="cls-2" d="M16,1.5A14.5,14.5,0,1,1,1.5,16,14.51,14.51,0,0,1,16,1.5M16,0A16,16,0,1,0,32,16,16,16,0,0,0,16,0Z"/><path class="cls-2" d="M17.41,16l4.27-4.27a1,1,0,1,0-1.41-1.41L16,14.59l-4.27-4.27a1,1,0,0,0-1.41,1.41L14.59,16l-4.27,4.27a1,1,0,0,0,0,1.41,1,1,0,0,0,1.41,0L16,17.41l4.27,4.27a1,1,0,0,0,1.41,0,1,1,0,0,0,0-1.41Z"/></g></g></svg>