<?xml version="1.0" encoding="utf-8" ?>
<!-- Generator: Adobe Illustrator 24.0.0, SVG Export Plug-In . SVG Version: 6.00 Build 0)  -->
<svg version="1.1" id="Layer_1" xmlns="http://www.w3.org/2000/svg" xmlns:xlink="http://www.w3.org/1999/xlink" x="0px" y="0px"
     viewBox="0 0 841.9 595.3" style="enable-background:new 0 0 841.9 595.3;" xml:space="preserve">
<style type="text/css">
	.st0{fill:none}
	.st1{fill:#000;}
	.st2{fill:#000;}
	.st3{fill:none;stroke:#000;stroke-width:4;stroke-miterlimit:10;}
</style>
<rect y="0" class="st0" width="841.9" height="595.3" />
<g>
<path class="st1" d="M189.2,432.8l3.3-0.6c8.8-1.3,13.9,2.2,13.9,10.1c0,10-8.8,19.7-19.7,21.6l-3.3,0.6
		c-9.8,1.6-14.7,2.4-24.5,3.9c-3.6,10-5.4,15-9.1,24.9c-5.8,16.4-12.4,32.7-22.2,47.2c-10.9,17.1-29.3,29.7-49.5,31.3
		c-30.5,2.5-53.4-24.1-53.8-53.4C24,492.4,42.1,468.6,64.5,457c16.1-8.7,34.2-11.8,52.2-13.6c7.9-1,11.8-1.5,19.7-2.6l4.3-11.3
		c-5.9,3-12.3,5-18.9,5.7c-11.7,1.6-23.5-2.7-31.5-11.3c-7.6-8.3-10.6-18.3-10.9-34c-6.8,0.5-10.2,0.7-16.9,1l-3.3,0.1
		c-8.8,0.1-13.9-4.2-13.9-12.1c0-10,8.8-18.3,19.7-18.8l3.3-0.2c7.1-0.4,10.6-0.6,17.7-1.2c16.3-31,41-61.7,77-68.4
		c21.8-4,43.1,10.6,43.2,33.6c0,18.3-11.2,36.4-26,46.8c-6.3,4.2-15.3,7.4-28,10.6c-4.3,1.1-9.6,2.1-12.4,2.5
		c-11.2,1.5-16.8,2.1-28,3.3c0,1-0.3,2.1-0.3,2.7c0,10.2,7.1,15.6,18.4,14.2c6.1-0.7,10.9-2.7,17.2-7.2l6.6-4.8
		c6.1-4.5,10.4-6.8,14.6-7.4c8.8-1.3,15.6,3.7,15.6,11.9c0,4.2-0.5,5.3-3.5,13.9c-3.8,10.3-5.8,15.4-9.6,25.7
		C178.1,434.6,181.8,434.1,189.2,432.8z M84.7,481.7c-14.5,6.2-27.6,18.9-27.8,35.4c-0.1,13,9.8,22.9,22,22.1
		c9.3-0.6,18.9-8,26-19.7c4.9-8.8,9-18,12.4-27.5c2.8-7.6,4.2-11.5,7.1-19.1C111,474.6,97.2,476.3,84.7,481.7z M144.5,352.5
		c8.1-1.1,16.2-3.4,19.7-5.5c6.8-4,11.1-10.1,11.1-16.4c0-6.8-6.4-11.3-14.1-9.8c-17.5,3.3-31.1,19.8-40.6,34.7
		C130.1,354.4,134.9,353.8,144.5,352.5L144.5,352.5z" />
<path class="st1" d="M232.6,450.3c-10.7-5.2-17.1-20.7-16.7-31.9c1.2-31.1,26.1-63.2,56.3-71.3c21.6-5.7,41.8,9.4,41.6,31.9
		c-0.1,20.8-10.6,43.2-25.5,57.7c-7.3,6.6-14.6,9.7-30,13.1C243.7,453,238.2,453.1,232.6,450.3z M270.2,374.9
		c-14.5,3.9-24.2,20.7-24.5,35.5c-0.2,9.8,5.1,13.4,15.6,11c6.1-1.3,8.8-2.5,11.9-5.8c6.3-6.4,11.4-18.8,11.4-28.3
		C284.6,378.1,278.1,372.7,270.2,374.9z" />
<path class="st1" d="M385.8,321.1l3-0.8c8.1-2.1,12.6,0.9,12.6,8c0,9.2-8.1,18.9-17.9,21.4l-3,0.8l-8.8,2.3
		c-5.5,15.3-10.9,30.6-16.4,45.9l13.6-3.5l3-0.8c8.1-1.8,12.6,0.9,12.6,8.3c0,9.2-8.1,18.6-17.9,21.1l-3,0.8
		c-8.8,2.3-13.2,3.4-22,5.6c-12.4,3.1-20.2-1.5-20.2-11.7c0.1-3.8,0.9-7.5,2.3-11c0.9-2.4,1.3-3.6,2.3-6.1
		c4.8-13.5,9.6-27,14.4-40.5c-10.6,2.7-15.6,0.2-15.6-7.6c0-9.2,8.1-18.5,17.9-21l3-0.8l5.5-1.4l6.6-18.4c0.6-1.5,0.9-2.3,1.5-3.8
		c3.8-10.4,10.1-17,17.9-19c7.1-1.8,12.4,2,12.4,8.9c-0.2,4.5-1.3,8.9-3,13.1l-4.5,11.4L385.8,321.1z" />
<path class="st1" d="M480.4,294.7c12.4-3.4,26.9,2.7,26.7,17.1c-0.2,5.1-1.2,10.2-2.8,15.1c-4.4,12.2-8.8,24.3-13.1,36.5l14.1-3.5
		l3-0.7c8.1-1.7,12.6,1.1,12.6,8.4c0,9.2-8.1,18.5-17.9,20.9l-3,0.8c-9.9,2.5-14.8,3.7-24.7,6.2c-10.9,2.8-18.4-2.4-18.4-12.1
		c0-2.8,0.4-5.5,1.3-8.2c0.6-1.5,0.9-2.3,1.5-3.8c4.4-12.7,6.6-19,11.1-31.7c1.8-4.4,2.3-6.6,2.3-8.7c0-4.5-4-6.3-9.3-5
		c-8.6,2.2-15.4,11.3-21.4,27.5c-4.5,13-9.1,26-13.6,38.9l-1.3,3.7c-3.8,10.2-10.1,16.5-17.9,18.6c-7.1,1.8-12.4-1.8-12.4-8.6
		c0.1-3.1,0.7-6.2,1.8-9.1c0.6-1.5,0.9-2.3,1.5-3.8l53.5-151.2c5-13.9,10.3-20.2,19.2-22.5c7.1-1.8,12.4,2.1,12.4,8.9
		c-0.1,3.1-0.7,6.2-1.8,9.1l-1.3,3.7c-7.8,22-15.7,44-23.5,66C469.8,298.5,473.3,296.7,480.4,294.7z" />
<path class="st1" d="M574,344l3-0.7c8.1-1.5,12.6,1.5,12.6,8.9c0,9.2-8.1,18.2-17.9,20.3l-3,0.7c-7.8,1.7-11.7,2.6-19.4,4.4
		c-14.9,3.4-23.5-0.8-23.5-11.8c0-3.4,0.5-5.3,2.5-11.3c6.8-18.9,13.6-37.8,20.4-56.7l1.3-3.7c3.8-10.3,10.3-16.8,18.4-18.6
		c7.1-1.6,12.6,2.5,12.6,9.6c-0.1,3.1-0.8,6.2-2,9.1l-1.3,4c-5.9,16.3-11.8,32.6-17.7,49C565.7,345.8,568.5,345.2,574,344z
		 M559.4,254.2c0-9.7,7.6-19.5,16.9-21.6c9.8-2.1,17.4,4.2,17.4,14.4c-0.3,10.1-7.3,18.8-17.2,21.2
		C567.2,270.3,559.4,263.9,559.4,254.2L559.4,254.2z" />
<path class="st1" d="M692.1,322.9l3-0.4c8.1-0.8,12.6,2.7,12.6,10c0,9.2-8.1,17.4-17.9,18.7l-3,0.4c-6.4,0.9-9.5,1.3-15.9,2.3
		c-7.3,1.1-11.6-0.8-14.1-6.4c-0.9,1-1.3,1.5-2.3,2.5c-5.3,5.8-9.3,8.1-15.6,9.2c-6,1-8.9,1.6-14.9,2.7
		c-19.4,3.3-29.6-13.7-29.5-30.9c0.1-30,22.2-67.3,53.5-73c10.2-1.8,17.9,0.8,23,7.6c4.3-7.5,8.8-10.7,15.9-11.7s12.9,3.6,12.9,10.1
		c0,3.7-0.5,5.6-3.3,13c-6,15.9-12,31.9-17.9,47.8C683.9,324,686.7,323.6,692.1,322.9z M659.1,297.9l0.8-2.2c0.7-1.5,1-3.2,1-4.9
		c0-5-5.5-8.7-11.1-7.4c-15,3.6-25.8,23.1-26.2,38.5c-0.2,7.9,4,12.1,10.3,10.9l4.8-0.8c3.8-0.7,9.8-5.6,11.1-9L659.1,297.9z" />
<path class="st1" d="M736,287c-4,10.8-8.3,15.1-15.1,15.8c-6.8,0.7-12.6-3.9-12.6-10.4c0-2.7,0.5-4.2,2.8-10.5
		c4.6-12.4,9.2-24.7,13.9-37.1c3.8-9.8,7.6-13.6,14.1-14.1c6.1-0.5,10.1,2.4,11.3,8c0.4,1.5,0.6,2.3,1,3.8c1,4.1,1.8,4.6,9.3,4.1
		c11.6-0.7,17.4-0.9,29-1.2l3-0.1c8.3-0.1,13.1,4.1,13.1,11.7c0,5.5-4.3,12.3-8.8,14.5c-2.3,1.3-4.5,1.6-11.6,2.1l-1.5,1.1
		c-7.6,7.8-9.6,10.3-13.4,16.2c-4.5,7-6.1,10.8-6.1,14.5c0,6.8,4,10.5,11.4,10.2c6.2-0.2,9.3-0.3,15.4-0.5h3
		c8.1,0.1,12.6,4.1,12.6,11.4c0,9.2-7.8,16.5-17.7,16.7l-3,0.1c-9.7,0.3-14.6,0.5-24.2,1c-3.1-0.1-6.2-0.6-9.3-1.3
		c-11.1-2.4-18.7-13.8-18.7-28.4c0-15,9.5-28.5,18.9-39.5c-5.1,0.3-7.7,0.5-12.9,1L736,287z" />
<path class="st1" d="M243.2,568c0.2,1.4-0.7,2.8-2.2,3.1c-0.3,0-0.6,0.1-0.9,0h-10.5c-1.5,0.2-2.8-0.8-3-2.3c0-0.3,0-0.5,0-0.8
		v-27.3c-0.3-1.4,0.7-2.8,2.2-3.1c0.3-0.1,0.6-0.1,0.9,0h10.5c1.4-0.2,2.8,0.7,3.1,2.2c0,0.3,0,0.6,0,0.9v7.1h-5v-5.9h-6.5v24.9h6.5
		v-9.4h-3.7v-4.2h8.7V568z" />
<path class="st1" d="M290.3,568c0.2,1.4-0.7,2.8-2.2,3.1c-0.3,0-0.6,0.1-0.9,0h-10.9c-1.5,0.2-2.8-0.8-3-2.3c0-0.3,0-0.5,0-0.8
		v-27.3c-0.2-1.4,0.7-2.8,2.2-3.1c0.3,0,0.5-0.1,0.8,0h10.9c1.4-0.2,2.8,0.7,3,2.2c0,0.3,0,0.6,0,0.9L290.3,568z M285.3,566.7v-24.9
		h-6.9v24.9L285.3,566.7z" />
<path class="st1" d="M361,571h-5v-33.5h5L361,571z" />
<path class="st1" d="M408.3,571h-4.4l-8-21.1c0.2,0.8,0.3,1.6,0.3,2.4V571h-4.9v-33.4h4.4l8,20.6c-0.2-0.8-0.3-1.6-0.3-2.4v-18.2
		h4.9L408.3,571z" />
<path class="st1" d="M453.2,542h-5.5v29h-5v-29h-5.5v-4.4h16V542z" />
<path class="st1" d="M498.9,568c0.2,1.4-0.7,2.8-2.2,3.1c-0.3,0-0.6,0.1-0.9,0h-10.9c-2,0-3-1-3-3.1v-27.3c0-2.1,1-3.1,3-3.1h10.9
		c1.4-0.2,2.8,0.7,3,2.2c0,0.3,0,0.6,0,0.9V568z M493.9,566.7v-24.9H487v24.9L493.9,566.7z" />
<path class="st1" d="M581.4,571H577l-8-21.1c0.2,0.8,0.3,1.6,0.3,2.4V571h-4.9v-33.4h4.4l8,20.6c-0.2-0.8-0.3-1.6-0.3-2.4v-18.2
		h4.9V571z" />
<path class="st1" d="M628.7,571h-5l-1-6.3h-6.3l-1,6.4h-4.9V571l6.5-33.4h5.3L628.7,571z M622,560.4l-2.4-15.1l-2.5,15.1H622z" />
<path class="st1" d="M672.3,542h-5.5v29h-5v-29h-5.5v-4.4h16L672.3,542z" />
<path class="st1" d="M717.9,568c0.2,1.5-0.8,2.9-2.3,3.1c-0.3,0-0.5,0-0.8,0h-10.6c-1.4,0.2-2.8-0.8-3-2.2c0-0.3,0-0.6,0-0.9v-30.4
		h5v29.2h6.7v-29.2h5L717.9,568z" />
<path class="st1" d="M765.3,571h-5.2l-5.5-15.6v-3h4.9v-10.6h-6.3v29.2h-5v-33.5h13.3c1.4-0.2,2.8,0.8,3,2.2c0,0.3,0,0.6,0,0.9
		v12.2c0.2,1.1-0.4,2.2-1.4,2.7c-1.1,0.3-2.2,0.4-3.3,0.3L765.3,571z" />
<path class="st1" d="M808.6,571h-13.9v-33.5h13.7v4.4h-8.7v9.8h7.6v4.3h-7.5v10.5h8.9V571z" />
<path class="st1" d="M752.1,155.2l-59-43.3l0,0l-55.8-9.4l-43.3,2.9l0,0c-1.2-0.8-81.9-75.2-81.9-75.2l-6.5,1l-12.4-12.1H493
		l-2.5-2.7l-97.7,114.5l-2.8-2.7l-10.6,5.7l-19.2-5.4l-29.3,18l-33.2,21.8l-74,99.5l47.8-38.3l19.1-22.2l24.6-19.5l21.4,12.1
		l14.2-18.7l-7.2,56l24.2-25.8l24-44.4l97.7-128.9l50,95l24.9,17.3l0.2,60.5l88.1-70.1l12.2-10.5l40.1,14.9l112.5,55.3L752.1,155.2z
		" />
<path class="st2" d="M766.3,397.3c-145.5-12.4-251,47.5-371.7,78.5c-81.4,20.8-114.4,17.9-149,19.1c-18.4,0.6-19.5,2.4-20.1,8.2
		c-0.4,5.1,9.4,5.9,19.7,6.2s77.1,8.7,208.5-21c186.6-42.2,233.2-44.3,343.4,3.6C830.3,506.1,823.9,402.2,766.3,397.3z" />
<path class="st1" d="M784.9,89.6h-0.8c-0.7,0-1.2-0.6-1.7-1.7l-1.2-2.9l-1.1-2.7l-1.4-3.4c1.2-0.3,2.2-0.8,3.1-1.6l0.1-0.1
		c0.5-0.5,1-1,1.3-1.6c1-1.4,1.5-3.1,1.5-4.9v-0.2c0.1-2.8-1.8-5.3-4.5-5.9c-1-0.2-2-0.3-3-0.2h-6.4c-1.5-0.1-2.7,1-2.8,2.5
		c0,0,0,0,0,0c0,1.1,0.7,1.7,2,1.8h2.3l-5.7,13.9l-0.5,1.3l-0.6,1.4l-0.1,0.3l-1.5,3.5l-0.2,0.5c-0.7,1.4-0.2,3.2,1.3,3.9
		c0,0,0,0,0.1,0l0,0h0.3l0.5-0.2c0.3-0.4,0.7-0.7,1.2-1c0.9-1.3,1.7-2.7,2.3-4.2l0.1-0.4l0.4-0.9l0.2-0.5l0.2-0.5l0.7-1.7l2.4-5.9
		l0,0l4.4,10.6l0.3,0.7l0.4,1.1c0.7,2,2.6,3.2,4.7,3.2h2.7c0.9,0,1.7-0.7,1.7-1.6c0-0.1,0-0.1,0-0.2
		C787.6,90.6,786.4,89.5,784.9,89.6z M775.1,75.4h-0.5l0.4-0.9l2.3-5.8h0.5c1-0.1,2,0.6,2.2,1.6c0.1,0.3,0.1,0.6,0.1,0.9
		c0,1.4-0.7,2.7-2,3.4C777.3,75.2,776.2,75.5,775.1,75.4L775.1,75.4z" />
<path class="st1" d="M784.9,89.6h-6.6l0.4,1.1c0.7,2,2.6,3.2,4.7,3.2h2.5c0.9,0,1.7-0.7,1.7-1.6c0-0.1,0-0.1,0-0.2
		C787.7,90.6,786.4,89.5,784.9,89.6C784.9,89.6,784.9,89.6,784.9,89.6z" />
<path class="st1" d="M770.7,78.5c-1.4,0.1-2.6,1-3.1,2.2l-0.8,2l-1.2,2.7l-0.1,0.3l-1.5,3.5l-0.2,0.5c-0.7,1.4-0.2,3.2,1.3,3.9
		c0,0,0,0,0.1,0l0,0c1.1,0.4,2,0,2.6-1.3l0.2-0.5l1.6-3.7l0.1-0.4l0.4-0.9l0.2-0.5l0.2-0.5l0.7-1.7l2.4-5.9L770.7,78.5z M784.9,89.6
		h-0.8c-0.7,0-1.2-0.6-1.7-1.7l-1.2-2.9c-0.6-0.8-1.2-1.7-1.6-2.7l0.5-0.1l-1.4-3.4c1.2-0.3,2.2-0.8,3.1-1.6c-0.4,0-0.9,0-1.3,0.1
		l-1.4,0.2c0-0.2,0.1-0.4,0.1-0.5c0.6-1.3,2.1-1.9,4-1.5c1-1.4,1.5-3.1,1.5-4.9v-0.2c-1.6-0.5-3.2-0.5-4.8-0.2
		c0.1,0.3,0.1,0.6,0.1,0.9c0,1.4-0.7,2.7-2,3.4c-0.9,0.6-2,0.8-3,0.8h-0.5l0.4-0.9c-0.1,0.1-0.1,0.2-0.2,0.4c-0.4,1-0.7,2.1-0.7,3.2
		l-0.6,0.1l4.4,10.6c0.2,0.2,0.4,0.5,0.6,0.7c1.5,1.7,3.2,3.1,5.1,4.3h2.4c0.9,0,1.7-0.7,1.7-1.6c0-0.1,0-0.1,0-0.2
		C787.6,90.5,786.3,89.5,784.9,89.6z" />
<ellipse transform="matrix(0.7224 -0.6915 0.6915 0.7224 160.0254 558.2982)" class="st3" cx="775.3" cy="79.9" rx="25.2" ry="23" />
</g>
</svg>
