<svg xmlns="http://www.w3.org/2000/svg" viewBox="0 0 212.22 130.47"><defs><style>.cls-1{fill:none;}.cls-2{fill:#fff;}</style></defs><g id="Layer_2" data-name="Layer 2"><g id="Layer_1-2" data-name="Layer 1"><rect class="cls-1" width="212.22" height="130.47"/><g id="Layer_2-2" data-name="Layer 2"><g id="Layer_1-2-2" data-name="Layer 1-2"><path class="cls-2" d="M53.34,96.62c1.87-.28,2.8-.42,4.66-.75a5.79,5.79,0,0,0,3.16-1.46A3.63,3.63,0,0,0,62.3,91.7c0-1.57-1.08-2.15-3.23-1.78-1.38.25-2.07.36-3.45.57.71-1.92,1.07-2.89,1.77-4.82A8.42,8.42,0,0,0,58,83.12a2.28,2.28,0,0,0-.83-1.91,2.6,2.6,0,0,0-2.12-.45,6.69,6.69,0,0,0-2.75,1.38l-1.23.94a6.88,6.88,0,0,1-3.18,1.38c-2.33.28-3.49-.64-3.49-2.7v-.48c2.12-.22,3.18-.35,5.3-.63a16.93,16.93,0,0,0,8.33-3,10.35,10.35,0,0,0,4.16-8.17A6.22,6.22,0,0,0,60,64.3a7.2,7.2,0,0,0-5.8-1.21,16.13,16.13,0,0,0-8.18,4A29.36,29.36,0,0,0,39.6,76c-1.36.1-2,.14-3.38.22l-.6,0A3.9,3.9,0,0,0,33,77.31a3.39,3.39,0,0,0-1.06,2.5c0,1.53.87,2.28,2.61,2.2l.6,0c1.28-.06,1.93-.1,3.21-.18a9.81,9.81,0,0,0,2.19,6.6,6.35,6.35,0,0,0,5.74,2,10.45,10.45,0,0,0,3.61-1.11c-.32.86-.48,1.29-.79,2.15-1.48.21-2.22.3-3.7.48a26.53,26.53,0,0,0-10.93,3.14,13,13,0,0,0-6.51,11,11.23,11.23,0,0,0,2.9,7.42,9.8,9.8,0,0,0,7.22,2.66,11.69,11.69,0,0,0,7.65-3.71c2.79-3.16,4.36-7.2,5.89-11.12C52.31,99.44,52.66,98.5,53.34,96.62ZM49.92,70.83a7.62,7.62,0,0,1,3.82-2,2.59,2.59,0,0,1,1.92.34,1.69,1.69,0,0,1,.75,1.48c0,2.83-3.45,3.91-5.75,4.12-1.81.25-2.71.36-4.51.56A19.37,19.37,0,0,1,49.92,70.83Zm-4.41,30.26a26.11,26.11,0,0,1-3.41,6.67A5.37,5.37,0,0,1,38.28,110a3.59,3.59,0,0,1-3-1.13,4.33,4.33,0,0,1-1.19-3.13A5.9,5.9,0,0,1,35.53,102a9.72,9.72,0,0,1,3.81-2.81,28.59,28.59,0,0,1,7.51-1.69C46.32,98.92,46.05,99.64,45.51,101.09ZM82.6,79.77a6.09,6.09,0,0,0-2.17-5.12,6.37,6.37,0,0,0-5.55-.93,13.69,13.69,0,0,0-7.53,5,15.18,15.18,0,0,0-3.19,8.57c-.1,2.06,1,5,3.12,6,.88.44,2.58.41,5.11-.15A15,15,0,0,0,76,91.88a9.82,9.82,0,0,0,2.5-1.94,15.42,15.42,0,0,0,3-4.77,14.4,14.4,0,0,0,1.13-5.41ZM75.51,86a4.35,4.35,0,0,1-2.72,1.75c-2,.45-3-.28-3-2.14a7.36,7.36,0,0,1,1.42-4.19A5.38,5.38,0,0,1,74.32,79a2.16,2.16,0,0,1,2,.39,2.55,2.55,0,0,1,.76,2A7.77,7.77,0,0,1,75.51,86Zm18-11.26L90.39,83.5l2.6-.66c2-.5,3,0,3,1.38a3.6,3.6,0,0,1-1,2.56A5.92,5.92,0,0,1,92,88.35l-4.16,1.06a3.75,3.75,0,0,1-2.8-.15,2.17,2.17,0,0,1-1-2,6.22,6.22,0,0,1,.42-2.08c.17-.47.26-.7.44-1.17.91-2.57,1.83-5.13,2.75-7.7l-.35.09c-1.73.43-2.6-.06-2.6-1.46a3.6,3.6,0,0,1,1-2.58,5.83,5.83,0,0,1,2.9-1.56l1.07-.27L90.9,67l.25-.71a5.11,5.11,0,0,1,3.44-3.56,1.87,1.87,0,0,1,1.64.25,1.59,1.59,0,0,1,.68,1.42,7.33,7.33,0,0,1-.6,2.47c-.34.86-.52,1.28-.86,2.13l.72-.18c2-.51,3,0,3,1.38a3.57,3.57,0,0,1-1.05,2.56,5.9,5.9,0,0,1-2.87,1.55Zm18.11-2.21a5.66,5.66,0,0,0,.4-1.67c0-.92-.59-1.23-1.77-.92-1.58.4-2.91,2.15-4,5.23l-2.6,7.3Q102.41,86,100,86.61a2,2,0,0,1-1.63-.2,1.51,1.51,0,0,1-.67-1.35A5.15,5.15,0,0,1,98,83.38l.25-.72L108.4,54.14c.89-2.45,2.09-3.87,3.63-4.26a1.91,1.91,0,0,1,1.64.25,1.65,1.65,0,0,1,.68,1.43,8.33,8.33,0,0,1-.6,2.45l-4.42,12.42a11.77,11.77,0,0,1,4-2.41,4.5,4.5,0,0,1,3.66.37,3.24,3.24,0,0,1,1.44,2.94,8.44,8.44,0,0,1-.56,2.77q-1.23,3.47-2.44,6.93l2.67-.67c1.95-.48,2.93,0,2.93,1.43a3.52,3.52,0,0,1-1,2.53,5.89,5.89,0,0,1-2.9,1.54L112.45,83a3.13,3.13,0,0,1-2.5-.25,2.09,2.09,0,0,1-1-1.9,8,8,0,0,1,.54-2.36ZM134.7,55a4,4,0,0,1-.94,2.58,3.94,3.94,0,0,1-2.29,1.46,2.55,2.55,0,0,1-2.29-.47,2.6,2.6,0,0,1-.94-2.16,4.08,4.08,0,0,1,.94-2.59,3.89,3.89,0,0,1,2.29-1.48,2.55,2.55,0,0,1,2.29.48A2.66,2.66,0,0,1,134.7,55Zm-3,9.63-3.33,9.29,2.63-.59c1.95-.43,2.93.08,2.93,1.52a3.42,3.42,0,0,1-1,2.5A5.69,5.69,0,0,1,130,78.81l-3.7.84a4.81,4.81,0,0,1-3.22-.11,2.12,2.12,0,0,1-1.17-2.08,6.42,6.42,0,0,1,.5-2.15l3.83-10.7.25-.73q1.07-3,3.44-3.51a2,2,0,0,1,1.69.31,1.7,1.7,0,0,1,.71,1.46,8.79,8.79,0,0,1-.63,2.49Zm22.61-4.71a5.26,5.26,0,0,0,.37-1.66,2,2,0,0,0-.69-1.58,2.1,2.1,0,0,0-1.71-.45,4.14,4.14,0,0,0-3.05,2.26c-.91-1.3-2.37-1.79-4.35-1.45-2.91.52-5.29,2.61-7,5a15.55,15.55,0,0,0-3.08,8.91,6.29,6.29,0,0,0,1.57,4.64,4.32,4.32,0,0,0,4.13,1.08l2.66-.48A6.46,6.46,0,0,0,146.6,74a2.3,2.3,0,0,0,2.72,1.19c1.19-.18,1.78-.27,3-.43a5.32,5.32,0,0,0,2.88-1.21,3.13,3.13,0,0,0,1-2.43c0-1.42-1-2-2.93-1.76l-2.55.36q1.66-4.53,3.34-9.05ZM147,64.56,145.4,69a3.06,3.06,0,0,1-2.53,2.06l-.59.11c-1.28.23-1.92-.47-1.92-2.13A8.06,8.06,0,0,1,142,64.5q1.6-2.36,3.3-2.64a2.07,2.07,0,0,1,1.48.24,1.14,1.14,0,0,1,.61,1A4.13,4.13,0,0,1,147,64.56ZM167.49,66c-.1,1.21.72,2,2.14,1.9l2.93-.09c2,0,3,.68,3,2.09a2.83,2.83,0,0,1-1,2.33,4.71,4.71,0,0,1-2.89.86c-1.83.06-2.74.1-4.56.2a4.62,4.62,0,0,1-3.8-1.41,5.78,5.78,0,0,1-1.48-4.19,7.78,7.78,0,0,1,.79-3.35,21.94,21.94,0,0,1,2.79-4.12c-1,.06-1.45.1-2.42.18l-.79,2.09q-1.06,2.79-2.79,3a2.29,2.29,0,0,1-1.75-.47,1.89,1.89,0,0,1-.7-1.54,7.07,7.07,0,0,1,.5-1.94c.88-2.33,1.76-4.67,2.63-7,.64-1.69,1.54-2.58,2.7-2.68a1.79,1.79,0,0,1,2.11,1.52L165,54q.13.57.42.69a3.54,3.54,0,0,0,1.37.06c2.18-.12,3.27-.17,5.44-.22s3,.71,3,2.19c0,2-1.29,3.05-3.86,3.12l-.25.25c-1.63,1.62-3.5,3.68-3.69,5.83ZM65.44,107.37H63.75a.42.42,0,0,0-.46.48v4.25a.41.41,0,0,0,.35.47h1.81a.42.42,0,0,0,.47-.36.24.24,0,0,0,0-.12v-4.25a.41.41,0,0,0-.35-.48A.29.29,0,0,0,65.44,107.37Zm-.31,4.54H64.06V108h1.07Zm4.2-4.54h.77v4.73a.41.41,0,0,1-.35.48H68a.42.42,0,0,1-.46-.37.21.21,0,0,1,0-.11v-4.73h.78v4.54h1Zm2.13,0H74v.69H73.1v4.52h-.78v-4.52h-.85Zm5.44,0H75.31v5.21H76.9a1,1,0,0,0,.73-.25,1,1,0,0,0,.28-.72v-3.26a1,1,0,0,0-.28-.73A1,1,0,0,0,76.9,107.37Zm.22,4.1c0,.29-.16.44-.47.44h-.56V108h.58c.3,0,.45.14.45.43Zm4.51-4.1H79.94a.42.42,0,0,0-.47.48v4.25a.42.42,0,0,0,.34.47h1.82a.42.42,0,0,0,.47-.36.24.24,0,0,0,0-.12v-4.25a.41.41,0,0,0-.35-.48.29.29,0,0,0-.13,0Zm-.31,4.54H80.24V108h1.07Zm4.52-4.54H84.15a.42.42,0,0,0-.47.48v4.25a.41.41,0,0,0,.35.47h1.81a.42.42,0,0,0,.47-.36.24.24,0,0,0,0-.12v-4.25a.41.41,0,0,0-.34-.48.33.33,0,0,0-.14,0Zm-.32,4.54H84.46V108h1.06Zm4.17-1.69.87,2.36h-.82l-.86-2.42v-.47h.77V108h-1v4.54h-.78v-5.21H90a.4.4,0,0,1,.47.35.56.56,0,0,1,0,.13v1.9a.43.43,0,0,1-.22.42,1.77,1.77,0,0,1-.51,0Zm7.23-2.37v1.22h-.78v-1h-1v3.87h1v-1.09h.78v1.28a.43.43,0,0,1-.36.48H94.81a.41.41,0,0,1-.46-.36v-4.37a.42.42,0,0,1,.46-.48h1.63a.43.43,0,0,1,.48.36Zm2.35,4h1.27v.69H98.49v-5.21h.78Zm4.84-4.52h-1.69c-.31,0-.46.16-.46.48v4.25a.42.42,0,0,0,.34.48h1.81a.43.43,0,0,0,.48-.36v-4.37a.42.42,0,0,0-.35-.48.29.29,0,0,0-.13,0Zm-.3,4.54h-1.07V108h1.07Zm2.13-4.54h2.5v.69h-.86v4.52h-.79v-4.52h-.86Zm5.68,0h.79v5.21h-.79v-2.34h-1.05v2.34h-.77v-5.21h.78v2.15h1Zm2.38,0h.78v5.21H114Zm4.25,0H119v5.21h-.68l-1.25-3.28a2.47,2.47,0,0,1,.05.38v2.9h-.75v-5.21h.68l1.25,3.21a2.35,2.35,0,0,1,0-.37Zm4.93.48V109h-.79V108h-1v3.87h1v-1.46h-.58v-.66h1.36v2.31a.43.43,0,0,1-.36.48h-1.75a.42.42,0,0,1-.47-.36v-4.37a.42.42,0,0,1,.35-.48.29.29,0,0,1,.13,0h1.63a.42.42,0,0,1,.48.35Zm4.71,1.44V108h1v.9h.77v-1.07a.42.42,0,0,0-.36-.47h-1.7a.4.4,0,0,0-.47.35.24.24,0,0,0,0,.12v1.37a.45.45,0,0,0,.17.39l.37.25-.39.27a.49.49,0,0,0-.16.4v1.57a.4.4,0,0,0,.34.47.28.28,0,0,0,.13,0h2v-2.38H130v-.67h-1.76Zm1,2.64h-1v-1.48l.35-.25h.64Zm5.73-4.58-1,5.21h.77l.16-1h1l.15,1h.78l-1-5.22Zm0,3.56.38-2.35.38,2.35Zm5.75-3.07v1.21h-.78v-1h-1v3.87h1v-1.1h.78v1.3a.43.43,0,0,1-.36.48h-1.74a.42.42,0,0,1-.47-.36v-4.37a.42.42,0,0,1,.47-.48h1.62a.43.43,0,0,1,.49.35v.13Zm4.13,0v1.21h-.77v-1h-1v3.87h1v-1.1h.77v1.3a.41.41,0,0,1-.35.48h-1.75a.41.41,0,0,1-.46-.36.24.24,0,0,1,0-.12v-4.25c0-.32.15-.48.46-.48H144a.41.41,0,0,1,.48.35.29.29,0,0,1,0,.13Zm2.35,4h1.39v.69h-2.15v-5.2h2.14v.69h-1.36v1.52H148v.68h-1.17Zm5.38-4V109h-.78v-1h-.95V109l1.56,1.48a.52.52,0,0,1,.17.42v1.25a.41.41,0,0,1-.35.48h-1.69a.42.42,0,0,1-.47-.36.24.24,0,0,1,0-.12v-1.25h.78v1.06h.95v-1l-1.56-1.48a.55.55,0,0,1-.17-.42v-1.15a.41.41,0,0,1,.35-.48.24.24,0,0,1,.12,0h1.57a.4.4,0,0,1,.47.35A.29.29,0,0,1,152.22,107.85Zm4.08,0V109h-.78v-1h-1V109l1.56,1.48a.59.59,0,0,1,.17.42v1.25a.43.43,0,0,1-.35.48h-1.69a.43.43,0,0,1-.48-.36v-1.37h.79v1.06h1v-1L154,109.42a.59.59,0,0,1-.17-.42v-1.15a.43.43,0,0,1,.36-.48.24.24,0,0,1,.12,0h1.58a.42.42,0,0,1,.46.37Zm3.73-.47h-1.69c-.31,0-.46.16-.46.48v4.25a.4.4,0,0,0,.34.47H160a.43.43,0,0,0,.48-.36v-4.38a.43.43,0,0,0-.36-.48.24.24,0,0,0-.12,0Zm-.31,4.54h-1.07V108h1.07Zm4.17-1.69.86,2.36h-.81l-.85-2.43v-.47h.75V108h-1v4.54h-.77v-5.21h2.07a.42.42,0,0,1,.47.36.24.24,0,0,1,0,.12v1.89a.4.4,0,0,1-.22.43,1.8,1.8,0,0,1-.52,0Zm2.31-2.85H167v5.21h-.78Zm3.15,4.51h1.38v.69h-2.16v-5.21h2.14v.69h-1.36v1.52h1.17v.68h-1.17Zm5.38-4V109H174v-1h-1V109l1.57,1.48a.59.59,0,0,1,.17.42v1.25a.43.43,0,0,1-.36.48h-1.69a.42.42,0,0,1-.47-.36v-1.37H173v1.06h1v-1l-1.57-1.48a.59.59,0,0,1-.17-.42v-1.15a.43.43,0,0,1,.36-.48.2.2,0,0,1,.11,0h1.57a.42.42,0,0,1,.48.35Zm-8.36-84.64c.32,0,.57-.21.75-.64l1.1-2.72,1.05,2.55a1.12,1.12,0,0,0,1.11.75h.18c.53,0,.8-.21.8-.63s-.2-.46-.6-.46h-.07a.49.49,0,0,1-.46-.34l-.79-1.87a1.83,1.83,0,0,0,.95-.69,1.94,1.94,0,0,0,.37-1.14c0-1-.58-1.45-1.73-1.46h-1.3c-.54,0-.81.21-.81.64s.21.47.62.47h.29L166,22.29l-.05.11a.88.88,0,0,0-.07.32.43.43,0,0,0,.15.34A.54.54,0,0,0,166.37,23.21Zm2.73-5.54a.41.41,0,0,1,.47.35v.11c0,.52-.34.8-1,.84ZM164.69,25a2.62,2.62,0,0,0,1.16.5,13.76,13.76,0,0,0,2.13.11,9.43,9.43,0,0,0,2.31-.22,4.64,4.64,0,0,0,1.6-.84,6.81,6.81,0,0,0,1.9-2.51,7.46,7.46,0,0,0,.73-3.15,4.64,4.64,0,0,0-1.42-3.5A4.81,4.81,0,0,0,169.56,14a6.48,6.48,0,0,0-5.14,2.4,7.64,7.64,0,0,0-1.27,2.17,6.59,6.59,0,0,0-.46,2.39,5.16,5.16,0,0,0,.53,2.32A4.4,4.4,0,0,0,164.69,25Zm.52-8a5.19,5.19,0,0,1,4.17-2,3.87,3.87,0,0,1,4,3.74,1.13,1.13,0,0,1,0,.26,6.21,6.21,0,0,1-.58,2.61,5.65,5.65,0,0,1-1.55,2.07,3.55,3.55,0,0,1-1.3.69,6.91,6.91,0,0,1-1.87.19,11.08,11.08,0,0,1-1.73-.08,2.3,2.3,0,0,1-.94-.39,3.54,3.54,0,0,1-1.18-1.42,4.28,4.28,0,0,1-.43-1.92A5.7,5.7,0,0,1,165.21,17ZM71.82,48.22l-9,7.23,14-18.77L83,32.57l5.51-3.42,3.61,1,2-1.08.53.5L113.09,8l.48.5h0l2.33,2.28,1.22-.19s15.22,14,15.45,14.18h0l8.16-.54L151.29,26l11.13,8.16,12.35,8.59L153.56,32.35,146,29.55l-2.31,2L127.09,44.74l0-11.42-4.7-3.25-9.44-17.91L94.5,36.45,90,44.82l-4.56,4.87,1.35-10.56-2.68,3.53-4-2.29L75.42,44Zm99.09,49.41c-20.79-9-29.56-8.63-64.75-.68-24.77,5.6-37.36,4-39.3,4s-3.81-.21-3.72-1.16c.09-1.1.3-1.43,3.78-1.55,6.53-.23,12.76.34,28.1-3.59,22.76-5.83,42.65-17.12,70.07-14.8,10.87.93,12.08,20.52,5.83,17.81Z"/></g></g></g></g></svg>