<svg id="Layer_1" data-name="Layer 1" xmlns="http://www.w3.org/2000/svg" viewBox="0 0 600 218.45"><defs><style>.cls-1{fill:#fff;}</style></defs><path class="cls-1" d="M349.31,38.7c-7.68,0-11.42,6.57-11.42,13.14S341.63,65,349.31,65s11.42-6.57,11.42-13.19S357,38.7,349.31,38.7m-1,3.63c2.83,0,5,4.29,5,13.34,0,4.45-1.57,5.71-3.08,5.71-2.83,0-5-4.3-5-13.34,0-4.44,1.57-5.71,3.08-5.71M326.11,58.71c0,4.85,2,6.32,5.15,6.32a8.24,8.24,0,0,0,6.47-3.79l-1-2.12a2.47,2.47,0,0,1-1.77.66c-1.16,0-1.52-.51-1.52-2.27V43.34h3.08l.66-3.89h-3.74V35.81a10.66,10.66,0,0,1,.15-2L331.31,33a10.35,10.35,0,0,1-7,7.38v3h1.82V58.71Zm-23.29,5.55v-3H301V46a3.7,3.7,0,0,1,2.68-1.21c1.57,0,2.27.91,2.27,2.48v14h-1.82v3h11v-3h-1.82V45.06c0-3.94-1.77-6.37-5.66-6.37-3,0-5.05,1.92-6.67,3.44V38.7l-9.2,3.13v2.83l1.82-.56V61.23H291.8v3Zm-20.27,0h8.84v-3h-1.82V44c0-1.77.1-3.54.25-5.31l-9.45,3.13v2.83l1.82-.56V56.32c0,1.92-.56,2.58-2.48,2.58s-2.48-.66-2.48-2.58V44c0-1.77.1-3.54.25-5.31L268,41.82v2.83l1.82-.56V58.24c0,4.5,2.28,6.77,6,6.77A7.36,7.36,0,0,0,282,62ZM252.29,33.74c4.65.1,6.27,2.37,6.27,6.62s-1.36,8.24-6.27,8.34Zm1.61,30.52v-4h-1.62V52.69a6.53,6.53,0,0,0,2-.35c1.41,3.94,3.28,7.78,4.19,11.93h9.1v-4h-1.82l-4.14-9.65c3.64-1.57,5.26-5.61,5.26-8.79,0-8.29-4.09-12.08-14.35-12.08H242.18v4H244V60.28h-1.82v4H253.9Z"/><path class="cls-1" d="M71,172.8h5V99.3H71V88.24h36.82c17.08,0,25.76,7.7,25.76,21,0,11.06-6.16,16-16.1,18.06v.28c14.28,3.22,21.28,11.2,21.28,26,0,19.6-8.54,30.24-33,30.24H71ZM99,123c7.7-.7,13.3-1.82,13.3-11.76,0-8.82-3.64-11.9-13.3-11.9Zm0,43.68c0,5.88,2.38,7.42,7.84,7.42,4.06,0,9-3.64,9-20.44,0-13.72-4.06-19.32-16.8-19.6Z"/><path class="cls-1" d="M194.15,168c-5.6,9.94-15,17.92-26.88,17.92-13.3,0-24.08-14.42-24.08-34,0-19.18,9.52-38.92,26.46-38.92,14.84,0,23.8,18.2,24.08,30.1l-29.54,14c1.4,7,5.74,12.32,11.9,12.32,5.46,0,11.76-3.5,14.56-7Zm-18.48-28.42c-.7-4.76-1.82-16.52-8.68-16.52-5.32,0-6.44,7.7-6.44,14a49.41,49.41,0,0,0,1.12,10.08Z"/><path class="cls-1" d="M233.43,114.56h.28c7.56-19.46,12.18-27,22.4-27,3.5,0,3.92,1,9.1,1a16,16,0,0,0,3.92-.42l3.78,4.76-23.52,81.06a78,78,0,0,0-2,9.94H228.11a78.64,78.64,0,0,0-1.4-9.8L207.53,99.3h-4.62V88.24H234V99.3h-4.06Zm10.36,40.18h.28l12-43.4c-3.78,0-6-2.1-9.94-2.1-4.48,0-6.72,3.36-10.64,12.32Z"/><path class="cls-1" d="M274.31,183.86v-8.4h4.76V128.14l-4.76,1.54v-8.12L300.07,113c-.42,5.32-.56,10.5-.56,15.82v46.62h4.9v8.4ZM288,111.06c-4.34,0-8-3.08-8-7.42A13.48,13.48,0,0,1,293.21,90.2c3.92,0,8,3.08,8,7.28A13.42,13.42,0,0,1,288,111.06Z"/><path class="cls-1" d="M315.33,160.34c3.64,5.18,10.5,14.14,17.78,14.14a5.06,5.06,0,0,0,5.32-4.9c0-9.66-27.44-13.16-27.44-35.28,0-12.46,11.34-21.28,23.24-21.28,6.58,0,12.18,3.5,17.22,6.86L344.17,134c-2.38-3.22-10.08-10.92-14.56-10.92-3.5,0-5.32,2.38-5.32,5.74,0,9.1,27.44,15.68,27.44,33.32,0,14.14-10.78,23.8-24.5,23.8a32.3,32.3,0,0,1-20.86-8.12Z"/><path class="cls-1" d="M356.49,183.86v-8.4h4.76V128.14l-4.76,1.54v-8.12L382.25,113c-.42,5.32-.56,10.5-.56,15.82v46.62h4.9v8.4Zm13.72-72.8c-4.34,0-8-3.08-8-7.42A13.48,13.48,0,0,1,375.39,90.2c3.92,0,8,3.08,8,7.28A13.42,13.42,0,0,1,370.21,111.06Z"/><path class="cls-1" d="M388.83,95.8,419.07,86v7.56l-4.9,1.82v26.46c5-4.48,10.22-8.82,17.36-8.82,11.76,0,16,16.38,16,25.48,0,19-10.64,47.46-33.6,47.46-6.44,0-16.24-3.78-20.86-8.4a68,68,0,0,0,.7-7.84v-68l-4.9,1.68Zm25.34,64.4c.42,6,.14,11.9,7.42,11.9,7.7,0,8-9.24,8-17.22,0-19.18-3.92-25.2-9.52-25.2-2,0-5.88,1.12-5.88,3.5Z"/><path class="cls-1" d="M448.75,183.86v-8.4h4.76V102.38l-4.62,1.54V95.8L478.57,86v8.12L474,95.66v79.8h4.9v8.4Z"/><path class="cls-1" d="M531.49,168c-5.6,9.94-15,17.92-26.88,17.92-13.3,0-24.08-14.42-24.08-34,0-19.18,9.52-38.92,26.46-38.92,14.84,0,23.8,18.2,24.08,30.1l-29.54,14c1.4,7,5.74,12.32,11.9,12.32,5.46,0,11.76-3.5,14.56-7ZM513,139.62c-.7-4.76-1.82-16.52-8.68-16.52-5.32,0-6.44,7.7-6.44,14A49.41,49.41,0,0,0,499,147.18Z"/></svg>